<?xml version="1.0" encoding="UTF-8"?>
<svg width="20px" height="20px" viewBox="0 0 20 20" version="1.1" xmlns="http://www.w3.org/2000/svg" xmlns:xlink="http://www.w3.org/1999/xlink">
    <title>call_FILL0_wght400_GRAD0_opsz24@2x</title>
    <g id="Symbols" stroke="none" stroke-width="1" fill="none" fill-rule="evenodd">
        <g id="footer_mbl" transform="translate(-76, -183)" fill="#FFFFFF" fill-rule="nonzero">
            <g id="call_FILL0_wght400_GRAD0_opsz24" transform="translate(76, 183)">
                <path d="M18.8333333,20 C16.5185185,20 14.2314815,19.4953704 11.9722222,18.4861111 C9.71296296,17.4768519 7.65740741,16.0462963 5.80555556,14.1944444 C3.9537037,12.3425926 2.52314815,10.287037 1.51388889,8.02777778 C0.50462963,5.76851852 0,3.48148148 0,1.16666667 C0,0.833333333 0.111111111,0.555555556 0.333333333,0.333333333 C0.555555556,0.111111111 0.833333333,0 1.16666667,0 L5.66666667,0 C5.92592593,0 6.15740741,0.087962963 6.36111111,0.263888889 C6.56481481,0.439814815 6.68518519,0.648148148 6.72222222,0.888888889 L7.44444444,4.77777778 C7.48148148,5.07407407 7.47222222,5.32407407 7.41666667,5.52777778 C7.36111111,5.73148148 7.25925926,5.90740741 7.11111111,6.05555556 L4.41666667,8.77777778 C4.78703704,9.46296296 5.22685185,10.125 5.73611111,10.7638889 C6.24537037,11.4027778 6.80555556,12.0185185 7.41666667,12.6111111 C7.99074074,13.1851852 8.59259259,13.7175926 9.22222222,14.2083333 C9.85185185,14.6990741 10.5185185,15.1481481 11.2222222,15.5555556 L13.8333333,12.9444444 C14,12.7777778 14.2175926,12.6527778 14.4861111,12.5694444 C14.7546296,12.4861111 15.0185185,12.462963 15.2777778,12.5 L19.1111111,13.2777778 C19.3703704,13.3518519 19.5833333,13.4861111 19.75,13.6805556 C19.9166667,13.875 20,14.0925926 20,14.3333333 L20,18.8333333 C20,19.1666667 19.8888889,19.4444444 19.6666667,19.6666667 C19.4444444,19.8888889 19.1666667,20 18.8333333,20 Z M3.36111111,6.66666667 L5.19444444,4.83333333 L4.72222222,2.22222222 L2.25,2.22222222 C2.34259259,2.98148148 2.47222222,3.73148148 2.63888889,4.47222222 C2.80555556,5.21296296 3.0462963,5.94444444 3.36111111,6.66666667 Z M13.3055556,16.6111111 C14.0277778,16.9259259 14.7638889,17.1759259 15.5138889,17.3611111 C16.2638889,17.5462963 17.0185185,17.6666667 17.7777778,17.7222222 L17.7777778,15.2777778 L15.1666667,14.75 L13.3055556,16.6111111 Z" id="Shape"></path>
            </g>
        </g>
    </g>
</svg>