<?xml version="1.0" encoding="UTF-8"?>
<svg width="25px" height="25px" viewBox="0 0 25 25" version="1.1" xmlns="http://www.w3.org/2000/svg" xmlns:xlink="http://www.w3.org/1999/xlink">
    <title>call_FILL0_wght400_GRAD0_opsz24@2x</title>
    <g id="WEB" stroke="none" stroke-width="1" fill="none" fill-rule="evenodd">
        <g id="Contacte" transform="translate(-887, -364)" fill="#000000" fill-rule="nonzero">
            <g id="call_FILL0_wght400_GRAD0_opsz24" transform="translate(887, 364)">
                <path d="M23.5416667,25 C20.6481481,25 17.7893519,24.369213 14.9652778,23.1076389 C12.1412037,21.8460648 9.57175926,20.0578704 7.25694444,17.7430556 C4.94212963,15.4282407 3.15393519,12.8587963 1.89236111,10.0347222 C0.630787037,7.21064815 0,4.35185185 0,1.45833333 C0,1.04166667 0.138888889,0.694444444 0.416666667,0.416666667 C0.694444444,0.138888889 1.04166667,0 1.45833333,0 L7.08333333,0 C7.40740741,0 7.69675926,0.109953704 7.95138889,0.329861111 C8.20601852,0.549768519 8.35648148,0.810185185 8.40277778,1.11111111 L9.30555556,5.97222222 C9.35185185,6.34259259 9.34027778,6.65509259 9.27083333,6.90972222 C9.20138889,7.16435185 9.07407407,7.38425926 8.88888889,7.56944444 L5.52083333,10.9722222 C5.9837963,11.8287037 6.53356481,12.65625 7.17013889,13.4548611 C7.80671296,14.2534722 8.50694444,15.0231481 9.27083333,15.7638889 C9.98842593,16.4814815 10.7407407,17.1469907 11.5277778,17.7604167 C12.3148148,18.3738426 13.1481481,18.9351852 14.0277778,19.4444444 L17.2916667,16.1805556 C17.5,15.9722222 17.7719907,15.8159722 18.1076389,15.7118056 C18.443287,15.6076389 18.7731481,15.5787037 19.0972222,15.625 L23.8888889,16.5972222 C24.212963,16.6898148 24.4791667,16.8576389 24.6875,17.1006944 C24.8958333,17.34375 25,17.6157407 25,17.9166667 L25,23.5416667 C25,23.9583333 24.8611111,24.3055556 24.5833333,24.5833333 C24.3055556,24.8611111 23.9583333,25 23.5416667,25 Z M4.20138889,8.33333333 L6.49305556,6.04166667 L5.90277778,2.77777778 L2.8125,2.77777778 C2.92824074,3.72685185 3.09027778,4.66435185 3.29861111,5.59027778 C3.50694444,6.5162037 3.80787037,7.43055556 4.20138889,8.33333333 Z M16.6319444,20.7638889 C17.5347222,21.1574074 18.4548611,21.4699074 19.3923611,21.7013889 C20.3298611,21.9328704 21.2731481,22.0833333 22.2222222,22.1527778 L22.2222222,19.0972222 L18.9583333,18.4375 L16.6319444,20.7638889 Z" id="Shape"></path>
            </g>
        </g>
    </g>
</svg>