<?xml version="1.0" encoding="UTF-8"?>
<svg width="32px" height="25px" viewBox="0 0 32 25" version="1.1" xmlns="http://www.w3.org/2000/svg" xmlns:xlink="http://www.w3.org/1999/xlink">
    <title>mail_FILL0_wght400_GRAD0_opsz24@2x</title>
    <g id="WEB" stroke="none" stroke-width="1" fill="none" fill-rule="evenodd">
        <g id="Contacte" transform="translate(-320, -364)" fill="#000000" fill-rule="nonzero">
            <g id="mail_FILL0_wght400_GRAD0_opsz24" transform="translate(320, 364)">
                <path d="M3.125,25 C2.265625,25 1.52994792,24.6940104 0.91796875,24.0820312 C0.305989583,23.4700521 0,22.734375 0,21.875 L0,3.125 C0,2.265625 0.305989583,1.52994792 0.91796875,0.91796875 C1.52994792,0.305989583 2.265625,0 3.125,0 L28.125,0 C28.984375,0 29.7200521,0.305989583 30.3320312,0.91796875 C30.9440104,1.52994792 31.25,2.265625 31.25,3.125 L31.25,21.875 C31.25,22.734375 30.9440104,23.4700521 30.3320312,24.0820312 C29.7200521,24.6940104 28.984375,25 28.125,25 L3.125,25 Z M15.625,14.0625 L3.125,6.25 L3.125,21.875 L28.125,21.875 L28.125,6.25 L15.625,14.0625 Z M15.625,10.9375 L28.125,3.125 L3.125,3.125 L15.625,10.9375 Z M3.18359375,6.25 L3.18359375,3.125 L3.18359375,21.875 L3.18359375,6.25 Z" id="Shape"></path>
            </g>
        </g>
    </g>
</svg>