<?xml version="1.0" encoding="UTF-8"?>
<svg width="50px" height="52px" viewBox="0 0 50 52" version="1.1" xmlns="http://www.w3.org/2000/svg" xmlns:xlink="http://www.w3.org/1999/xlink">
    <title>precision_manufacturing_FILL0_wght400_GRAD0_opsz24@2x</title>
    <g id="WEB" stroke="none" stroke-width="1" fill="none" fill-rule="evenodd">
        <g id="Empresa" transform="translate(-242, -702)" fill="#B7142C" fill-rule="nonzero">
            <g id="precision_manufacturing_FILL0_wght400_GRAD0_opsz24" transform="translate(242, 702)">
                <path d="M2.77287623,51.3145213 L2.77287623,42.9958926 L11.3687925,42.9958926 L4.29795815,19.8423761 C3.05016385,19.149157 2.02188892,18.1324357 1.21313335,16.7922122 C0.404377783,15.4519887 0,14.019336 0,12.4942541 C0,10.1835239 0.808755567,8.21940321 2.4262667,6.60189208 C4.04377783,4.98438095 6.0078985,4.17562538 8.31862869,4.17562538 C10.1209982,4.17562538 11.7269557,4.69553967 13.1365011,5.73536826 C14.5460466,6.77519684 15.5281069,8.1038667 16.0826821,9.72137784 L24.9558861,9.72137784 L24.9558861,6.94850161 C24.9558861,6.16285334 25.22162,5.50429524 25.753088,4.9728273 C26.2845559,4.44135935 26.943114,4.17562538 27.7287623,4.17562538 C28.1446937,4.17562538 28.5490715,4.26805459 28.9418956,4.452913 C29.3347198,4.63777142 29.6697756,4.91505904 29.9470633,5.28477587 L34.6609529,0.848173905 C35.0768843,0.432242471 35.5736913,0.166508499 36.1513738,0.0509719895 C36.7290564,-0.06456452 37.2951853,0.0163110366 37.8497605,0.29359866 L48.6639778,5.28477587 C49.2185531,5.56206349 49.5998235,5.96644128 49.8077893,6.49790922 C50.015755,7.02937717 50.0042013,7.54929146 49.7731283,8.0576521 C49.4958407,8.61222735 49.0914629,8.97039053 48.559995,9.13214164 C48.028527,9.29389275 47.5086127,9.2592318 47.0002521,9.02815878 L37.0178977,4.452913 L30.5016385,10.5532407 L30.5016385,14.4352674 L37.0178977,20.3969513 L47.0002521,15.8217055 C47.5086127,15.5906325 48.0400807,15.5675252 48.5946559,15.7523836 C49.1492312,15.9372421 49.5420553,16.2838516 49.7731283,16.7922122 C50.0504159,17.3467875 50.0735232,17.8782554 49.8424502,18.3866161 C49.6113772,18.8949767 49.2185531,19.2878008 48.6639778,19.5650885 L37.8497605,24.6949095 C37.2951853,24.9721971 36.7290564,25.0530727 36.1513738,24.9375361 C35.5736913,24.8219996 35.0768843,24.5562657 34.6609529,24.1403342 L29.9470633,19.7037323 C29.6697756,19.9810199 29.3347198,20.2352002 28.9418956,20.4662732 C28.5490715,20.6973462 28.1446937,20.8128828 27.7287623,20.8128828 C26.943114,20.8128828 26.2845559,20.5471488 25.753088,20.0156808 C25.22162,19.4842129 24.9558861,18.8256548 24.9558861,18.0400065 L24.9558861,15.2671303 L16.0826821,15.2671303 C15.9440383,15.6368471 15.7938409,15.9834567 15.6320897,16.3069589 C15.4703386,16.6304611 15.2508193,16.9770706 14.9735316,17.3467875 L28.8379128,42.9958926 L38.8202672,42.9958926 L38.8202672,51.3145213 L2.77287623,51.3145213 Z M8.31862869,15.2671303 C9.10427695,15.2671303 9.76283506,15.0013963 10.294303,14.4699284 C10.8257709,13.9384604 11.0915049,13.2799023 11.0915049,12.4942541 C11.0915049,11.7086058 10.8257709,11.0500477 10.294303,10.5185798 C9.76283506,9.98711181 9.10427695,9.72137784 8.31862869,9.72137784 C7.53298042,9.72137784 6.87442232,9.98711181 6.34295437,10.5185798 C5.81148643,11.0500477 5.54575246,11.7086058 5.54575246,12.4942541 C5.54575246,13.2799023 5.81148643,13.9384604 6.34295437,14.4699284 C6.87442232,15.0013963 7.53298042,15.2671303 8.31862869,15.2671303 Z M17.0531888,42.9958926 L22.4602975,42.9958926 L10.5369297,20.8128828 L10.259642,20.8128828 L17.0531888,42.9958926 Z" id="Shape"></path>
            </g>
        </g>
    </g>
</svg>